<mxfile host="65bd71144e">
    <diagram name="第 1 页 的副本" id="tm1G8iWLZ_QPuOPbx9Au">
        <mxGraphModel dx="1335" dy="413" grid="1" gridSize="10" guides="1" tooltips="1" connect="1" arrows="1" fold="1" page="1" pageScale="1" pageWidth="827" pageHeight="1169" math="0" shadow="0">
            <root>
                <mxCell id="T97J72tXwTXzdbfRmsoW-0"/>
                <mxCell id="T97J72tXwTXzdbfRmsoW-1" parent="T97J72tXwTXzdbfRmsoW-0"/>
                <mxCell id="T97J72tXwTXzdbfRmsoW-2" value="co&lt;span style=&quot;font-size: 10px&quot;&gt;&lt;sub&gt;12&lt;/sub&gt;&lt;/span&gt;" style="ellipse;whiteSpace=wrap;html=1;aspect=fixed;strokeWidth=2;fillColor=#e1d5e7;strokeColor=#9673a6;" parent="T97J72tXwTXzdbfRmsoW-1" vertex="1">
                    <mxGeometry x="160" y="440" width="40" height="40" as="geometry"/>
                </mxCell>
                <mxCell id="T97J72tXwTXzdbfRmsoW-3" value="co&lt;span style=&quot;font-size: 8.33333px&quot;&gt;&lt;sub&gt;21&lt;/sub&gt;&lt;/span&gt;" style="ellipse;whiteSpace=wrap;html=1;aspect=fixed;strokeWidth=2;fillColor=#dae8fc;strokeColor=#6c8ebf;" parent="T97J72tXwTXzdbfRmsoW-1" vertex="1">
                    <mxGeometry x="400" y="320" width="40" height="40" as="geometry"/>
                </mxCell>
                <mxCell id="T97J72tXwTXzdbfRmsoW-4" value="co&lt;span style=&quot;font-size: 10px&quot;&gt;&lt;sub&gt;21&lt;/sub&gt;&lt;/span&gt;" style="ellipse;whiteSpace=wrap;html=1;aspect=fixed;strokeWidth=2;fillColor=#d5e8d4;strokeColor=#82b366;" parent="T97J72tXwTXzdbfRmsoW-1" vertex="1">
                    <mxGeometry x="400" y="560" width="40" height="40" as="geometry"/>
                </mxCell>
                <mxCell id="T97J72tXwTXzdbfRmsoW-5" value="co&lt;span style=&quot;font-size: 10px&quot;&gt;&lt;sub&gt;31&lt;/sub&gt;&lt;/span&gt;" style="ellipse;whiteSpace=wrap;html=1;aspect=fixed;strokeWidth=2;fillColor=#ffe6cc;strokeColor=#d79b00;" parent="T97J72tXwTXzdbfRmsoW-1" vertex="1">
                    <mxGeometry x="640" y="200" width="40" height="40" as="geometry"/>
                </mxCell>
                <mxCell id="T97J72tXwTXzdbfRmsoW-6" value="co&lt;span style=&quot;font-size: 10px&quot;&gt;&lt;sub&gt;32&lt;/sub&gt;&lt;/span&gt;" style="ellipse;whiteSpace=wrap;html=1;aspect=fixed;strokeWidth=2;fillColor=#f8cecc;strokeColor=#b85450;" parent="T97J72tXwTXzdbfRmsoW-1" vertex="1">
                    <mxGeometry x="640" y="440" width="40" height="40" as="geometry"/>
                </mxCell>
                <mxCell id="T97J72tXwTXzdbfRmsoW-7" value="co&lt;span style=&quot;font-size: 10px&quot;&gt;&lt;sub&gt;33&lt;/sub&gt;&lt;/span&gt;" style="ellipse;whiteSpace=wrap;html=1;aspect=fixed;strokeWidth=2;fillColor=#e1d5e7;strokeColor=#9673a6;" parent="T97J72tXwTXzdbfRmsoW-1" vertex="1">
                    <mxGeometry x="640" y="680" width="40" height="40" as="geometry"/>
                </mxCell>
                <mxCell id="T97J72tXwTXzdbfRmsoW-8" value="" style="endArrow=none;html=1;entryX=0;entryY=0.5;entryDx=0;entryDy=0;strokeWidth=2;" parent="T97J72tXwTXzdbfRmsoW-1" target="T97J72tXwTXzdbfRmsoW-3" edge="1">
                    <mxGeometry width="50" height="50" relative="1" as="geometry">
                        <mxPoint x="200" y="460" as="sourcePoint"/>
                        <mxPoint x="370" y="340" as="targetPoint"/>
                    </mxGeometry>
                </mxCell>
                <mxCell id="T97J72tXwTXzdbfRmsoW-9" value="" style="endArrow=none;html=1;entryX=0;entryY=0.5;entryDx=0;entryDy=0;strokeWidth=2;" parent="T97J72tXwTXzdbfRmsoW-1" edge="1">
                    <mxGeometry width="50" height="50" relative="1" as="geometry">
                        <mxPoint x="440" y="340" as="sourcePoint"/>
                        <mxPoint x="640" y="220" as="targetPoint"/>
                    </mxGeometry>
                </mxCell>
                <mxCell id="T97J72tXwTXzdbfRmsoW-10" value="" style="endArrow=none;html=1;entryX=0;entryY=0.5;entryDx=0;entryDy=0;strokeWidth=2;" parent="T97J72tXwTXzdbfRmsoW-1" edge="1">
                    <mxGeometry width="50" height="50" relative="1" as="geometry">
                        <mxPoint x="440" y="580" as="sourcePoint"/>
                        <mxPoint x="640" y="460" as="targetPoint"/>
                    </mxGeometry>
                </mxCell>
                <mxCell id="T97J72tXwTXzdbfRmsoW-11" value="" style="endArrow=none;html=1;entryX=0;entryY=0.5;entryDx=0;entryDy=0;exitX=1;exitY=0.5;exitDx=0;exitDy=0;strokeWidth=2;" parent="T97J72tXwTXzdbfRmsoW-1" source="T97J72tXwTXzdbfRmsoW-2" target="T97J72tXwTXzdbfRmsoW-4" edge="1">
                    <mxGeometry width="50" height="50" relative="1" as="geometry">
                        <mxPoint x="230" y="490" as="sourcePoint"/>
                        <mxPoint x="430" y="370" as="targetPoint"/>
                    </mxGeometry>
                </mxCell>
                <mxCell id="T97J72tXwTXzdbfRmsoW-12" value="" style="endArrow=none;html=1;entryX=0;entryY=0.5;entryDx=0;entryDy=0;exitX=1;exitY=0.5;exitDx=0;exitDy=0;strokeWidth=2;" parent="T97J72tXwTXzdbfRmsoW-1" edge="1">
                    <mxGeometry width="50" height="50" relative="1" as="geometry">
                        <mxPoint x="440" y="340" as="sourcePoint"/>
                        <mxPoint x="640" y="460" as="targetPoint"/>
                    </mxGeometry>
                </mxCell>
                <mxCell id="T97J72tXwTXzdbfRmsoW-13" value="" style="endArrow=none;html=1;entryX=0;entryY=0.5;entryDx=0;entryDy=0;exitX=1;exitY=0.5;exitDx=0;exitDy=0;strokeWidth=2;" parent="T97J72tXwTXzdbfRmsoW-1" edge="1">
                    <mxGeometry width="50" height="50" relative="1" as="geometry">
                        <mxPoint x="440" y="580" as="sourcePoint"/>
                        <mxPoint x="640" y="700" as="targetPoint"/>
                    </mxGeometry>
                </mxCell>
                <mxCell id="T97J72tXwTXzdbfRmsoW-14" value="" style="endArrow=none;html=1;entryX=0;entryY=0.5;entryDx=0;entryDy=0;exitX=1;exitY=0.5;exitDx=0;exitDy=0;strokeWidth=2;" parent="T97J72tXwTXzdbfRmsoW-1" source="T97J72tXwTXzdbfRmsoW-3" target="T97J72tXwTXzdbfRmsoW-7" edge="1">
                    <mxGeometry width="50" height="50" relative="1" as="geometry">
                        <mxPoint x="420" y="370" as="sourcePoint"/>
                        <mxPoint x="620" y="490" as="targetPoint"/>
                    </mxGeometry>
                </mxCell>
                <mxCell id="T97J72tXwTXzdbfRmsoW-15" value="" style="endArrow=none;html=1;entryX=0;entryY=0.5;entryDx=0;entryDy=0;exitX=1;exitY=0.5;exitDx=0;exitDy=0;strokeWidth=2;" parent="T97J72tXwTXzdbfRmsoW-1" source="T97J72tXwTXzdbfRmsoW-4" target="T97J72tXwTXzdbfRmsoW-5" edge="1">
                    <mxGeometry width="50" height="50" relative="1" as="geometry">
                        <mxPoint x="240" y="500" as="sourcePoint"/>
                        <mxPoint x="440" y="620" as="targetPoint"/>
                    </mxGeometry>
                </mxCell>
                <mxCell id="T97J72tXwTXzdbfRmsoW-16" value="" style="endArrow=none;html=1;entryX=0.5;entryY=0;entryDx=0;entryDy=0;exitX=0.5;exitY=1;exitDx=0;exitDy=0;strokeWidth=2;" parent="T97J72tXwTXzdbfRmsoW-1" source="T97J72tXwTXzdbfRmsoW-3" target="T97J72tXwTXzdbfRmsoW-4" edge="1">
                    <mxGeometry width="50" height="50" relative="1" as="geometry">
                        <mxPoint x="250" y="510" as="sourcePoint"/>
                        <mxPoint x="450" y="630" as="targetPoint"/>
                    </mxGeometry>
                </mxCell>
                <mxCell id="T97J72tXwTXzdbfRmsoW-17" value="" style="endArrow=none;html=1;entryX=0.5;entryY=0;entryDx=0;entryDy=0;exitX=0.5;exitY=1;exitDx=0;exitDy=0;strokeWidth=2;" parent="T97J72tXwTXzdbfRmsoW-1" edge="1">
                    <mxGeometry width="50" height="50" relative="1" as="geometry">
                        <mxPoint x="659.5" y="240" as="sourcePoint"/>
                        <mxPoint x="659.5" y="440" as="targetPoint"/>
                    </mxGeometry>
                </mxCell>
                <mxCell id="T97J72tXwTXzdbfRmsoW-18" value="" style="endArrow=none;html=1;entryX=0.5;entryY=0;entryDx=0;entryDy=0;exitX=0.5;exitY=1;exitDx=0;exitDy=0;strokeWidth=2;" parent="T97J72tXwTXzdbfRmsoW-1" edge="1">
                    <mxGeometry width="50" height="50" relative="1" as="geometry">
                        <mxPoint x="659.5" y="480" as="sourcePoint"/>
                        <mxPoint x="659.5" y="680" as="targetPoint"/>
                    </mxGeometry>
                </mxCell>
                <mxCell id="T97J72tXwTXzdbfRmsoW-19" value="P&lt;sub&gt;1&lt;/sub&gt;" style="ellipse;whiteSpace=wrap;html=1;aspect=fixed;strokeWidth=2;fillColor=#d5e8d4;strokeColor=#82b366;" parent="T97J72tXwTXzdbfRmsoW-1" vertex="1">
                    <mxGeometry x="60" y="80" width="40" height="40" as="geometry"/>
                </mxCell>
                <mxCell id="T97J72tXwTXzdbfRmsoW-20" value="&lt;span&gt;P&lt;/span&gt;&lt;sub&gt;2&lt;/sub&gt;" style="ellipse;whiteSpace=wrap;html=1;aspect=fixed;strokeWidth=2;fillColor=#dae8fc;strokeColor=#6c8ebf;" parent="T97J72tXwTXzdbfRmsoW-1" vertex="1">
                    <mxGeometry x="220" y="80" width="40" height="40" as="geometry"/>
                </mxCell>
                <mxCell id="T97J72tXwTXzdbfRmsoW-21" value="P&lt;span style=&quot;font-size: 10px&quot;&gt;4&lt;/span&gt;" style="ellipse;whiteSpace=wrap;html=1;aspect=fixed;strokeWidth=2;fillColor=#f8cecc;strokeColor=#b85450;" parent="T97J72tXwTXzdbfRmsoW-1" vertex="1">
                    <mxGeometry x="540" y="80" width="40" height="40" as="geometry"/>
                </mxCell>
                <mxCell id="T97J72tXwTXzdbfRmsoW-22" value="&lt;span&gt;P&lt;/span&gt;&lt;sub&gt;3&lt;/sub&gt;" style="ellipse;whiteSpace=wrap;html=1;aspect=fixed;strokeWidth=2;fillColor=#ffe6cc;strokeColor=#d79b00;" parent="T97J72tXwTXzdbfRmsoW-1" vertex="1">
                    <mxGeometry x="380" y="80" width="40" height="40" as="geometry"/>
                </mxCell>
                <mxCell id="T97J72tXwTXzdbfRmsoW-23" value="P&lt;span style=&quot;font-size: 10px&quot;&gt;5&lt;br&gt;&lt;/span&gt;" style="ellipse;whiteSpace=wrap;html=1;aspect=fixed;strokeWidth=2;fillColor=#e1d5e7;strokeColor=#9673a6;" parent="T97J72tXwTXzdbfRmsoW-1" vertex="1">
                    <mxGeometry x="700" y="80" width="40" height="40" as="geometry"/>
                </mxCell>
                <mxCell id="NRuNP5oYlHgJ69DvRQuL-0" value="" style="endArrow=none;html=1;exitX=1;exitY=0.5;exitDx=0;exitDy=0;entryX=0;entryY=0.5;entryDx=0;entryDy=0;strokeWidth=2;" parent="T97J72tXwTXzdbfRmsoW-1" source="T97J72tXwTXzdbfRmsoW-19" target="T97J72tXwTXzdbfRmsoW-20" edge="1">
                    <mxGeometry width="50" height="50" relative="1" as="geometry">
                        <mxPoint x="390" y="430" as="sourcePoint"/>
                        <mxPoint x="290" y="320" as="targetPoint"/>
                        <Array as="points"/>
                    </mxGeometry>
                </mxCell>
                <mxCell id="NRuNP5oYlHgJ69DvRQuL-1" value="" style="endArrow=none;html=1;exitX=1;exitY=0.5;exitDx=0;exitDy=0;entryX=0;entryY=0.5;entryDx=0;entryDy=0;strokeWidth=2;" parent="T97J72tXwTXzdbfRmsoW-1" edge="1">
                    <mxGeometry width="50" height="50" relative="1" as="geometry">
                        <mxPoint x="260" y="99.5" as="sourcePoint"/>
                        <mxPoint x="380" y="99.5" as="targetPoint"/>
                        <Array as="points"/>
                    </mxGeometry>
                </mxCell>
                <mxCell id="NRuNP5oYlHgJ69DvRQuL-2" value="" style="endArrow=none;html=1;exitX=1;exitY=0.5;exitDx=0;exitDy=0;entryX=0;entryY=0.5;entryDx=0;entryDy=0;strokeWidth=2;" parent="T97J72tXwTXzdbfRmsoW-1" edge="1">
                    <mxGeometry width="50" height="50" relative="1" as="geometry">
                        <mxPoint x="420" y="99.5" as="sourcePoint"/>
                        <mxPoint x="540" y="99.5" as="targetPoint"/>
                        <Array as="points"/>
                    </mxGeometry>
                </mxCell>
                <mxCell id="NRuNP5oYlHgJ69DvRQuL-3" value="" style="endArrow=none;html=1;exitX=1;exitY=0.5;exitDx=0;exitDy=0;entryX=0;entryY=0.5;entryDx=0;entryDy=0;strokeWidth=2;" parent="T97J72tXwTXzdbfRmsoW-1" edge="1">
                    <mxGeometry width="50" height="50" relative="1" as="geometry">
                        <mxPoint x="580" y="99.5" as="sourcePoint"/>
                        <mxPoint x="700" y="99.5" as="targetPoint"/>
                        <Array as="points"/>
                    </mxGeometry>
                </mxCell>
                <mxCell id="17EGr0peKHc_jQvcU9xc-0" value="" style="endArrow=none;html=1;strokeWidth=2;exitX=0.5;exitY=0;exitDx=0;exitDy=0;entryX=0.5;entryY=1;entryDx=0;entryDy=0;" parent="T97J72tXwTXzdbfRmsoW-1" source="T97J72tXwTXzdbfRmsoW-2" target="T97J72tXwTXzdbfRmsoW-19" edge="1">
                    <mxGeometry width="50" height="50" relative="1" as="geometry">
                        <mxPoint x="390" y="430" as="sourcePoint"/>
                        <mxPoint x="440" y="380" as="targetPoint"/>
                    </mxGeometry>
                </mxCell>
                <mxCell id="VzreKtaqajQDuVs-WVMM-0" value="" style="endArrow=none;html=1;entryX=0.5;entryY=0;entryDx=0;entryDy=0;exitX=0.5;exitY=1;exitDx=0;exitDy=0;strokeWidth=2;" parent="T97J72tXwTXzdbfRmsoW-1" source="T97J72tXwTXzdbfRmsoW-21" target="T97J72tXwTXzdbfRmsoW-5" edge="1">
                    <mxGeometry width="50" height="50" relative="1" as="geometry">
                        <mxPoint x="310" y="260" as="sourcePoint"/>
                        <mxPoint x="510" y="380" as="targetPoint"/>
                    </mxGeometry>
                </mxCell>
                <mxCell id="VzreKtaqajQDuVs-WVMM-1" value="" style="endArrow=none;html=1;entryX=0.5;entryY=0;entryDx=0;entryDy=0;exitX=0.5;exitY=1;exitDx=0;exitDy=0;strokeWidth=2;" parent="T97J72tXwTXzdbfRmsoW-1" source="T97J72tXwTXzdbfRmsoW-23" target="T97J72tXwTXzdbfRmsoW-5" edge="1">
                    <mxGeometry width="50" height="50" relative="1" as="geometry">
                        <mxPoint x="660" y="150" as="sourcePoint"/>
                        <mxPoint x="760" y="230" as="targetPoint"/>
                    </mxGeometry>
                </mxCell>
                <mxCell id="VzreKtaqajQDuVs-WVMM-4" value="" style="endArrow=none;html=1;entryX=0.5;entryY=0;entryDx=0;entryDy=0;exitX=0.5;exitY=1;exitDx=0;exitDy=0;strokeWidth=2;" parent="T97J72tXwTXzdbfRmsoW-1" source="T97J72tXwTXzdbfRmsoW-20" target="T97J72tXwTXzdbfRmsoW-5" edge="1">
                    <mxGeometry width="50" height="50" relative="1" as="geometry">
                        <mxPoint x="570" y="130" as="sourcePoint"/>
                        <mxPoint x="670" y="210" as="targetPoint"/>
                    </mxGeometry>
                </mxCell>
            </root>
        </mxGraphModel>
    </diagram>
    <diagram id="3Ly72FiyV3bbbam6luFa" name="第 1 页">
        <mxGraphModel dx="1335" dy="413" grid="1" gridSize="10" guides="1" tooltips="1" connect="1" arrows="1" fold="1" page="1" pageScale="1" pageWidth="827" pageHeight="1169" math="0" shadow="0">
            <root>
                <mxCell id="0"/>
                <mxCell id="1" parent="0"/>
                <mxCell id="IIWEKLIINnd2ia2Q3Hpi-21" value="co&lt;span style=&quot;font-size: 10px&quot;&gt;&lt;sub&gt;12&lt;/sub&gt;&lt;/span&gt;" style="ellipse;whiteSpace=wrap;html=1;aspect=fixed;strokeWidth=2;fillColor=#e1d5e7;strokeColor=#9673a6;" parent="1" vertex="1">
                    <mxGeometry x="160" y="440" width="40" height="40" as="geometry"/>
                </mxCell>
                <mxCell id="IIWEKLIINnd2ia2Q3Hpi-22" value="co&lt;span style=&quot;font-size: 8.33333px&quot;&gt;&lt;sub&gt;21&lt;/sub&gt;&lt;/span&gt;" style="ellipse;whiteSpace=wrap;html=1;aspect=fixed;strokeWidth=2;fillColor=#dae8fc;strokeColor=#6c8ebf;" parent="1" vertex="1">
                    <mxGeometry x="400" y="320" width="40" height="40" as="geometry"/>
                </mxCell>
                <mxCell id="IIWEKLIINnd2ia2Q3Hpi-23" value="co&lt;span style=&quot;font-size: 10px&quot;&gt;&lt;sub&gt;21&lt;/sub&gt;&lt;/span&gt;" style="ellipse;whiteSpace=wrap;html=1;aspect=fixed;strokeWidth=2;fillColor=#d5e8d4;strokeColor=#82b366;" parent="1" vertex="1">
                    <mxGeometry x="400" y="560" width="40" height="40" as="geometry"/>
                </mxCell>
                <mxCell id="IIWEKLIINnd2ia2Q3Hpi-24" value="co&lt;span style=&quot;font-size: 10px&quot;&gt;&lt;sub&gt;31&lt;/sub&gt;&lt;/span&gt;" style="ellipse;whiteSpace=wrap;html=1;aspect=fixed;strokeWidth=2;fillColor=#ffe6cc;strokeColor=#d79b00;" parent="1" vertex="1">
                    <mxGeometry x="640" y="200" width="40" height="40" as="geometry"/>
                </mxCell>
                <mxCell id="IIWEKLIINnd2ia2Q3Hpi-25" value="co&lt;span style=&quot;font-size: 10px&quot;&gt;&lt;sub&gt;32&lt;/sub&gt;&lt;/span&gt;" style="ellipse;whiteSpace=wrap;html=1;aspect=fixed;strokeWidth=2;fillColor=#f8cecc;strokeColor=#b85450;" parent="1" vertex="1">
                    <mxGeometry x="640" y="440" width="40" height="40" as="geometry"/>
                </mxCell>
                <mxCell id="IIWEKLIINnd2ia2Q3Hpi-26" value="co&lt;span style=&quot;font-size: 10px&quot;&gt;&lt;sub&gt;33&lt;/sub&gt;&lt;/span&gt;" style="ellipse;whiteSpace=wrap;html=1;aspect=fixed;strokeWidth=2;fillColor=#e1d5e7;strokeColor=#9673a6;" parent="1" vertex="1">
                    <mxGeometry x="640" y="680" width="40" height="40" as="geometry"/>
                </mxCell>
                <mxCell id="IIWEKLIINnd2ia2Q3Hpi-27" value="" style="endArrow=none;html=1;entryX=0;entryY=0.5;entryDx=0;entryDy=0;strokeWidth=2;" parent="1" target="IIWEKLIINnd2ia2Q3Hpi-22" edge="1">
                    <mxGeometry width="50" height="50" relative="1" as="geometry">
                        <mxPoint x="200" y="460" as="sourcePoint"/>
                        <mxPoint x="370" y="340" as="targetPoint"/>
                    </mxGeometry>
                </mxCell>
                <mxCell id="IIWEKLIINnd2ia2Q3Hpi-28" value="" style="endArrow=none;html=1;entryX=0;entryY=0.5;entryDx=0;entryDy=0;strokeWidth=2;" parent="1" edge="1">
                    <mxGeometry width="50" height="50" relative="1" as="geometry">
                        <mxPoint x="440" y="340" as="sourcePoint"/>
                        <mxPoint x="640" y="220" as="targetPoint"/>
                    </mxGeometry>
                </mxCell>
                <mxCell id="IIWEKLIINnd2ia2Q3Hpi-29" value="" style="endArrow=none;html=1;entryX=0;entryY=0.5;entryDx=0;entryDy=0;strokeWidth=2;" parent="1" edge="1">
                    <mxGeometry width="50" height="50" relative="1" as="geometry">
                        <mxPoint x="440" y="580" as="sourcePoint"/>
                        <mxPoint x="640" y="460" as="targetPoint"/>
                    </mxGeometry>
                </mxCell>
                <mxCell id="IIWEKLIINnd2ia2Q3Hpi-30" value="" style="endArrow=none;html=1;entryX=0;entryY=0.5;entryDx=0;entryDy=0;exitX=1;exitY=0.5;exitDx=0;exitDy=0;strokeWidth=2;" parent="1" source="IIWEKLIINnd2ia2Q3Hpi-21" target="IIWEKLIINnd2ia2Q3Hpi-23" edge="1">
                    <mxGeometry width="50" height="50" relative="1" as="geometry">
                        <mxPoint x="230" y="490" as="sourcePoint"/>
                        <mxPoint x="430" y="370" as="targetPoint"/>
                    </mxGeometry>
                </mxCell>
                <mxCell id="IIWEKLIINnd2ia2Q3Hpi-31" value="" style="endArrow=none;html=1;entryX=0;entryY=0.5;entryDx=0;entryDy=0;exitX=1;exitY=0.5;exitDx=0;exitDy=0;strokeWidth=2;" parent="1" edge="1">
                    <mxGeometry width="50" height="50" relative="1" as="geometry">
                        <mxPoint x="440" y="340" as="sourcePoint"/>
                        <mxPoint x="640" y="460" as="targetPoint"/>
                    </mxGeometry>
                </mxCell>
                <mxCell id="IIWEKLIINnd2ia2Q3Hpi-32" value="" style="endArrow=none;html=1;entryX=0;entryY=0.5;entryDx=0;entryDy=0;exitX=1;exitY=0.5;exitDx=0;exitDy=0;strokeWidth=2;" parent="1" edge="1">
                    <mxGeometry width="50" height="50" relative="1" as="geometry">
                        <mxPoint x="440" y="580" as="sourcePoint"/>
                        <mxPoint x="640" y="700" as="targetPoint"/>
                    </mxGeometry>
                </mxCell>
                <mxCell id="IIWEKLIINnd2ia2Q3Hpi-33" value="" style="endArrow=none;html=1;entryX=0;entryY=0.5;entryDx=0;entryDy=0;exitX=1;exitY=0.5;exitDx=0;exitDy=0;strokeWidth=2;" parent="1" source="IIWEKLIINnd2ia2Q3Hpi-22" target="IIWEKLIINnd2ia2Q3Hpi-26" edge="1">
                    <mxGeometry width="50" height="50" relative="1" as="geometry">
                        <mxPoint x="420" y="370" as="sourcePoint"/>
                        <mxPoint x="620" y="490" as="targetPoint"/>
                    </mxGeometry>
                </mxCell>
                <mxCell id="IIWEKLIINnd2ia2Q3Hpi-34" value="" style="endArrow=none;html=1;entryX=0;entryY=0.5;entryDx=0;entryDy=0;exitX=1;exitY=0.5;exitDx=0;exitDy=0;strokeWidth=2;" parent="1" source="IIWEKLIINnd2ia2Q3Hpi-23" target="IIWEKLIINnd2ia2Q3Hpi-24" edge="1">
                    <mxGeometry width="50" height="50" relative="1" as="geometry">
                        <mxPoint x="240" y="500" as="sourcePoint"/>
                        <mxPoint x="440" y="620" as="targetPoint"/>
                    </mxGeometry>
                </mxCell>
                <mxCell id="IIWEKLIINnd2ia2Q3Hpi-35" value="" style="endArrow=none;html=1;entryX=0.5;entryY=0;entryDx=0;entryDy=0;exitX=0.5;exitY=1;exitDx=0;exitDy=0;strokeWidth=2;" parent="1" source="IIWEKLIINnd2ia2Q3Hpi-22" target="IIWEKLIINnd2ia2Q3Hpi-23" edge="1">
                    <mxGeometry width="50" height="50" relative="1" as="geometry">
                        <mxPoint x="250" y="510" as="sourcePoint"/>
                        <mxPoint x="450" y="630" as="targetPoint"/>
                    </mxGeometry>
                </mxCell>
                <mxCell id="IIWEKLIINnd2ia2Q3Hpi-36" value="" style="endArrow=none;html=1;entryX=0.5;entryY=0;entryDx=0;entryDy=0;exitX=0.5;exitY=1;exitDx=0;exitDy=0;strokeWidth=2;" parent="1" edge="1">
                    <mxGeometry width="50" height="50" relative="1" as="geometry">
                        <mxPoint x="659.5" y="240" as="sourcePoint"/>
                        <mxPoint x="659.5" y="440" as="targetPoint"/>
                    </mxGeometry>
                </mxCell>
                <mxCell id="IIWEKLIINnd2ia2Q3Hpi-37" value="" style="endArrow=none;html=1;entryX=0.5;entryY=0;entryDx=0;entryDy=0;exitX=0.5;exitY=1;exitDx=0;exitDy=0;strokeWidth=2;" parent="1" edge="1">
                    <mxGeometry width="50" height="50" relative="1" as="geometry">
                        <mxPoint x="659.5" y="480" as="sourcePoint"/>
                        <mxPoint x="659.5" y="680" as="targetPoint"/>
                    </mxGeometry>
                </mxCell>
            </root>
        </mxGraphModel>
    </diagram>
</mxfile>